<?xml version="1.0" standalone="no"?>
<!DOCTYPE svg PUBLIC "-//W3C//DTD SVG 20010904//EN"
 "http://www.w3.org/TR/2001/REC-SVG-20010904/DTD/svg10.dtd">
<svg version="1.0" xmlns="http://www.w3.org/2000/svg"
 width="33.000000pt" height="44.000000pt" viewBox="0 0 33.000000 44.000000"
 preserveAspectRatio="xMidYMid meet">
<metadata>
Created by potrace 1.11, written by Peter Selinger 2001-2013
</metadata>
<g transform="translate(0.000000,44.000000) scale(0.100000,-0.100000)"
fill="#000000" stroke="none">
<path d="M142 408 c-7 -7 -12 -24 -12 -39 0 -35 -27 -42 -58 -15 -18 16 -27
18 -40 10 -23 -15 -28 -45 -8 -59 15 -11 15 -15 0 -51 -12 -28 -15 -62 -12
-127 4 -120 12 -127 152 -127 149 0 146 -4 146 175 0 85 -4 146 -10 150 -5 3
-10 21 -10 39 0 45 -16 56 -80 56 -31 0 -61 -5 -68 -12z m120 -115 c15 -13 18
-32 18 -116 0 -132 -4 -137 -116 -137 -108 0 -114 6 -114 111 0 90 15 123 65
145 43 19 124 18 147 -3z"/>
</g>
</svg>
